- 
http://www.Speed.Cd 
       
http://www.Speed.Cd      fast  and The Hottest Private Tracker on the net

(((--Registration will be open on june every weekend--)))

Please Seed back to make the speed Faster!!!

------------------nfo--------------------------
-[img]http://img35.imageshack.us/img35/9213/repeaters993266829large.jpg[/img]


[color=blue][size=5][b]Repeaters.2011.DVDRip.XVID.AC3.HQ.Hive-CM8[/b][/size][/color]


[b]Thx Hive

CM8 Doing It Right The First Time :D

Source: French DVD-R

Encode:
heard this is a very good movie so it deserves also a very good quality. :D 

Dvd had great quality itself to begin with, still added sharpness,brightness,rgb,denoise.
Looks like a BDRip in every way.
Doubt that it cant be done any better than this.
enjoy

Video: 720x304 @bitrate 1800 2pass
Audio: English AC3 5.1 @448
Sample: yes included
Subs: yes english in srt /subs[/b]


[url]http://www.imdb.com/title/tt1580426/[/url]


General
Complete name                    : Repeaters.2011.DVDRip.XVID.AC3.HQ.Hive-CM8.avi
Format                           : AVI
Format/Info                      : Audio Video Interleave
File size                        : 1.41 GiB
Duration                         : 1h 29mn
Overall bit rate                 : 2 257 Kbps
Writing application              : Nandub v1.0rc2
Writing library                  : Nandub build 1853/release

Video
ID                               : 0
Format                           : MPEG-4 Visual
Format profile                   : Advanced Simple@L5
Format settings, BVOP            : 1
Format settings, QPel            : Yes
Format settings, GMC             : No warppoints
Format settings, Matrix          : Default (H.263)
Muxing mode                      : Packed bitstream
Codec ID                         : XVID
Codec ID/Hint                    : XviD
Duration                         : 1h 29mn
Bit rate                         : 1 800 Kbps
Width                            : 720 pixels
Height                           : 304 pixels
Display aspect ratio             : 2.35:1
Frame rate                       : 23.976 fps
Color space                      : YUV
Chroma subsampling               : 4:2:0
Bit depth                        : 8 bits
Scan type                        : Progressive
Compression mode                 : Lossy
Bits/(Pixel*Frame)               : 0.343
Stream size                      : 1.12 GiB (80%)
Writing library                  : XviD 1.2.1 (UTC 2008-12-04)

Audio
ID                               : 1
Format                           : AC-3
Format/Info                      : Audio Coding 3
Mode extension                   : CM (complete main)
Codec ID                         : 2000
Duration                         : 1h 29mn
Bit rate mode                    : Constant
Bit rate                         : 448 Kbps
Channel(s)                       : 6 channels
Channel positions                : Front: L C R, Side: L R, LFE
Sampling rate                    : 48.0 KHz
Bit depth                        : 16 bits
Compression mode                 : Lossy
Stream size                      : 286 MiB (20%)
Alignment                        : Split accross interleaves
Interleave, duration             : 42 ms (1.00 video frame)
Interleave, preload duration     : 500 ms


Dustin Milligan	... 	Kyle Halsted
Amanda Crew	... 	Sonia Logan
Richard de Klerk	... 	Michael Weeks
Benjamin Ratner	... 	Bob Simpson
Teach Grant	... 	Rafe Bouchard


A gritty mind-bending thriller about three twenty-somethings who find themselves 
in an impossible time labyrinth, where each day they awaken to the same terrifying day as the preceding one. 

[img]http://img217.imageshack.us/img217/1733/39077084.png[/img]
[img]http://img36.imageshack.us/img36/9445/reref.png[/img]
[img]http://img64.imageshack.us/img64/1657/rererea.png[/img]
[img]http://img3.imageshack.us/img3/5463/rererere.png[/img]
[img]http://img835.imageshack.us/img835/5989/rerererere.png[/img]
[img]http://img98.imageshack.us/img98/1009/rerererreere.png[/img]
[img]http://img220.imageshack.us/img220/8405/rerererrereere.png[/img]





Greetz

ViSiON,SiC,SANTi,3LT0N,YanKeeS,MAGNET,THC,T0XiC,LKRG,FANTASIA-PLAY,FANTASIA-M,BHRG,IMAGiNE,WBZ,FLAWL3SS,NOVA,
D2U,Vik,Rapeseed,SAFC,goldadvance,MEMORY100,scumbag,Hero5,KaN1vE,Unevano,Pinnz,Wayne,cedrict wink,
Mr Hive and all P2P groups
Great Work Guys :D

FYS

CM8@hushmail.com